<svg xmlns="http://www.w3.org/2000/svg" viewBox="0 0 33 33" shape-rendering="crispEdges">
  <metadata>
    Згенеровано для: https://halitflyn.github.io/bus_171/
  </metadata>
  <path fill="#000000" d="
    M0 0h7v7H0z M1 1h5v5H1z
    M8 0h7v7H8z M9 1h5v5H9z
    M16 0h7v7H16z M17 1h5v5H17z
    M25 0h8v8H25z M26 1h6v6H26z
    M0 8h7v7H0z M1 9h5v5H1z
    M8 8h1v1H8z M10 8h1v1H10z M12 8h1v1H12z M14 8h1v1H14z
    M16 8h1v1H16z M18 8h1v1H18z M20 8h3v3H20z
    M25 8h1v1H25z M27 8h1v1H27z M29 8h1v1H29z M31 8h2v2H31z
    M0 16h7v7H0z M1 17h5v5H1z
    M8 16h1v1H8z M10 16h3v3H10z M14 16h1v1H14z
    M16 16h5v5H16z M22 16h1v1H22z M24 16h1v1H24z M26 16h1v1H26z M28 16h1v1H28z M30 16h3v3H30z
    M0 25h8v8H0z M1 26h6v6H1z
    M9 25h1v1H9z M11 25h1v1H11z M13 25h1v1H13z M15 25h1v1H15z M17 25h1v1H17z M19 25h1v1H19z M21 25h2v2H21z M24 25h1v1H24z
    M25 25h8v8H25z M26 26h6v6H26z
  "/>
</svg>
